<svg id="Capa_1" data-name="Capa 1" xmlns="http://www.w3.org/2000/svg" viewBox="0 0 584.63 709.87"><defs><style>.cls-1{fill:#176276;}.cls-2{fill:#3090ad;}.cls-3{fill:#318297;}.cls-4{fill:#3e8ca1;}.cls-5{fill:#39b8d5;}.cls-6{fill:#38b7d5;}.cls-7{fill:#4ea4ba;}.cls-8{fill:#fff;}.cls-9{fill:#1b697d;}.cls-10{font-size:114.97px;fill:#176174;font-family:Futura-Bold, Futura;font-weight:700;letter-spacing:-0.03em;}</style></defs><path class="cls-1" d="M452.09,333.24l80.18-17.34v50.17s-13.6-4.69-42.67-4.69S452.09,359,452.09,359Z" transform="translate(-199.04 -145.13)"/><path class="cls-1" d="M532.27,407.31V550.49s-9.17-2.54-40.09-5.08-40.09-4.76-40.09-4.76V398.42s16.09,1.59,40.09,1.9S532.27,407.31,532.27,407.31Z" transform="translate(-199.04 -145.13)"/><path class="cls-1" d="M452.09,578.11v28.25l80.18-17.78v-6s-9.11-3.17-37.68-2.85S452.09,578.11,452.09,578.11Z" transform="translate(-199.04 -145.13)"/><polygon class="cls-2" points="193.97 196.94 236.06 244.1 243.7 216.5 193.97 196.94"/><polygon class="cls-2" points="269.65 220.4 269 248.97 310.95 251.48 269.65 220.4"/><polygon class="cls-2" points="309.76 234.22 325.96 224.4 352.7 268.42 309.76 234.22"/><polygon class="cls-2" points="193.97 196.94 219.64 188.39 199.36 182.09 193.97 196.94"/><polygon class="cls-2" points="207.94 167.49 247.54 154.48 246.97 166.64 207.94 167.49"/><polygon class="cls-2" points="207.94 167.49 219.64 188.39 229.4 178.48 207.94 167.49"/><polygon class="cls-2" points="255.54 146.5 247.54 154.48 250.48 143.62 255.54 146.5"/><path class="cls-2" d="M442,287.47l-5.54,4.88,13.09-3.6s-3-.94-4.08-1.13C444.67,287.49,442,287.47,442,287.47Z" transform="translate(-199.04 -145.13)"/><path class="cls-2" d="M432.47,288.57l-7.75,11.85L420.93,294s4.05-2.43,5.2-3A52.92,52.92,0,0,1,432.47,288.57Z" transform="translate(-199.04 -145.13)"/><polygon class="cls-2" points="217.54 160.88 225.67 155.29 214.04 156.59 217.54 160.88"/><polygon class="cls-2" points="247.54 154.48 253.39 158.4 256.17 154.48 247.54 154.48"/><polygon class="cls-2" points="207.94 167.49 236.38 174.59 243.4 169.18 207.94 167.49"/><path class="cls-2" d="M393,342.07l7.64,23.51s-4.31-6.33-5.52-10.17S393,342.07,393,342.07Z" transform="translate(-199.04 -145.13)"/><path class="cls-2" d="M435.11,389.23l-33-21.38a55,55,0,0,0,13,12.35C423.11,385.43,435.11,389.23,435.11,389.23Z" transform="translate(-199.04 -145.13)"/><path class="cls-2" d="M549.52,377.88l7.07,54.25,14.9-38.62s-6.58-6-9-7.67C559.58,383.8,549.52,377.88,549.52,377.88Z" transform="translate(-199.04 -145.13)"/><polygon class="cls-2" points="347.3 298.11 384.18 295.52 383.99 264.22 347.3 298.11"/><polygon class="cls-2" points="338.49 303.43 384.18 295.52 360.98 323.08 338.49 303.43"/><polygon class="cls-2" points="222.05 375.13 248.44 351.91 216.72 337.37 222.05 375.13"/><path class="cls-2" d="M393.71,509.8a41,41,0,0,0-1.17,6.73,30.46,30.46,0,0,0,.26,7.44l45,17.26Z" transform="translate(-199.04 -145.13)"/><polygon class="cls-2" points="238.78 396.1 233.36 422.65 269.81 403.65 238.78 396.1"/><path class="cls-2" d="M392.8,524l39.6,43.81s-20.88-8.85-28.49-17.43C395.81,541.22,392.8,524,392.8,524Z" transform="translate(-199.04 -145.13)"/><polygon class="cls-2" points="269.81 403.65 263.72 428.13 316.44 430.34 269.81 403.65"/><polygon class="cls-2" points="321.22 407.43 316.44 430.34 337.06 433.46 321.22 407.43"/><polygon class="cls-2" points="340.34 411.65 337.06 433.46 353.13 419.45 340.34 411.65"/><polygon class="cls-2" points="346.52 440.28 352.22 450.68 353.13 419.45 346.52 440.28"/><polygon class="cls-2" points="351.18 456.57 363.53 429.31 369.86 456.17 351.18 456.57"/><polygon class="cls-2" points="346.82 461.68 351.18 456.57 363.73 467.3 346.82 461.68"/><path class="cls-2" d="M535.92,612.43s4.06-1.91,5.36-2.65,4.59-3,4.59-3l9,12.22Z" transform="translate(-199.04 -145.13)"/><polygon class="cls-2" points="336.88 467.3 328.95 480.36 344.46 479.46 336.88 467.3"/><polygon class="cls-2" points="303.06 486.07 321.03 471.41 328.95 480.36 303.06 486.07"/><polygon class="cls-2" points="299.92 477.38 303.06 486.07 290.25 490.59 299.92 477.38"/><path class="cls-2" d="M489.13,627.6l.17,8.12s-2.86,2.7-3.79,3.72c-1.18,1.31-4.67,5.61-4.67,5.61Z" transform="translate(-199.04 -145.13)"/><path class="cls-3" d="M478.21,639l2.63,6s-.24,1.16-.3,1.83-.07,2-.07,2l-4-4A15.64,15.64,0,0,1,478.21,639Z" transform="translate(-199.04 -145.13)"/><path class="cls-4" d="M476.87,649.64,482,652.5a25.66,25.66,0,0,0,3,4.93c1.23,1.22,4.6,3.21,4.84,3.53s-3.27.24-8.16-4.75C477.41,651.86,476.87,649.64,476.87,649.64Z" transform="translate(-199.04 -145.13)"/><path class="cls-5" d="M432.47,288.57l4,3.78,5.54-4.88a39.94,39.94,0,0,0-5.21,0A22.1,22.1,0,0,0,432.47,288.57Z" transform="translate(-199.04 -145.13)"/><polygon class="cls-5" points="219.64 188.39 219.86 207.13 193.97 196.94 219.64 188.39"/><path class="cls-5" d="M393,342.07l42.1,47.16s-29.27-18.6-31.74-20.36c-2.66-1.89-2.82-3-6.05-13.34S393,342.07,393,342.07Z" transform="translate(-199.04 -145.13)"/><polygon class="cls-5" points="243.7 216.5 236.06 244.1 269.65 220.4 243.7 216.5"/><path class="cls-5" d="M508.8,379.35,510,396.61s32.63,10.21,34.32,11S508.8,379.35,508.8,379.35Z" transform="translate(-199.04 -145.13)"/><path class="cls-5" d="M446.58,299.61l9.51-3.81a2.54,2.54,0,0,1,.27,2,12,12,0,0,1-1.15,1.78Z" transform="translate(-199.04 -145.13)"/><polygon class="cls-5" points="247.54 154.48 246.97 166.64 253.39 158.4 247.54 154.48"/><polygon class="cls-6" points="237.39 147.22 247.54 154.48 207.94 167.49 237.39 147.22"/><polygon class="cls-7" points="221.89 148.83 214.04 156.59 225.67 155.29 221.89 148.83"/><polygon class="cls-7" points="225.67 155.29 233.43 143.44 237.39 147.22 225.67 155.29"/><polygon class="cls-7" points="237.39 147.22 250.48 143.62 247.54 154.48 237.39 147.22"/><ellipse class="cls-8" cx="435.09" cy="298.39" rx="3.27" ry="2.27" transform="translate(-290.25 190.07) rotate(-38.44)"/><path class="cls-7" d="M446.58,299.61l8-8s1.58.91,1.62,2.06a12.36,12.36,0,0,1-.11,2.11Z" transform="translate(-199.04 -145.13)"/><polygon class="cls-7" points="207.94 167.49 229.4 178.48 236.38 174.59 207.94 167.49"/><polygon class="cls-7" points="207.94 167.49 246.97 166.64 243.4 169.18 207.94 167.49"/><polygon class="cls-7" points="207.94 167.49 199.36 182.09 219.64 188.39 207.94 167.49"/><path class="cls-7" d="M418.76,339.94l.14,12.32,13.59,5.34a75.43,75.43,0,0,1-7.78-8.49A55,55,0,0,1,418.76,339.94Z" transform="translate(-199.04 -145.13)"/><polygon class="cls-7" points="236.06 244.1 269 248.97 269.65 220.4 236.06 244.1"/><polygon class="cls-7" points="269.65 220.4 308.92 222.04 310.95 251.48 269.65 220.4"/><polygon class="cls-7" points="308.92 222.04 309.76 234.22 325.96 224.4 308.92 222.04"/><path class="cls-7" d="M525,369.53l30,49.36-5.47-41s-8-3.31-10.68-4.25C535.43,372.45,525,369.53,525,369.53Z" transform="translate(-199.04 -145.13)"/><polygon class="cls-7" points="372.45 248.38 383.99 264.22 356.41 289.84 372.45 248.38"/><polygon class="cls-7" points="338.49 303.43 338.27 334.49 360.98 323.08 338.49 303.43"/><polygon class="cls-7" points="214.04 156.59 217.54 160.88 207.94 167.49 214.04 156.59"/><polygon class="cls-7" points="216.72 337.37 248.44 322.1 248.44 351.91 216.72 337.37"/><path class="cls-7" d="M415.76,482.5s-9.8,10.79-13,14.54c-6.51,7.56-9,12.76-9,12.76l28.81,20.62Z" transform="translate(-199.04 -145.13)"/><polygon class="cls-7" points="193.76 378.83 238.78 396.1 233.36 422.65 193.76 378.83"/><polygon class="cls-7" points="233.36 422.65 263.72 428.13 269.81 403.65 233.36 422.65"/><path class="cls-7" d="M468.85,548.78l46.63,26.7,4.78-22.92s-10.27-.25-25.1-1.6S468.85,548.78,468.85,548.78Z" transform="translate(-199.04 -145.13)"/><polygon class="cls-7" points="321.22 407.43 337.06 433.46 340.34 411.65 321.22 407.43"/><polygon class="cls-7" points="337.06 433.46 353.13 419.45 346.52 440.28 337.06 433.46"/><path class="cls-7" d="M552.18,564.58l-1,35.1,11.42-25.24s-3-4.32-4.71-5.67S552.18,564.58,552.18,564.58Z" transform="translate(-199.04 -145.13)"/><path class="cls-7" d="M562.57,574.44l6.34,26.82a65.45,65.45,0,0,0-.35-14C567.74,581.5,562.57,574.44,562.57,574.44Z" transform="translate(-199.04 -145.13)"/><path class="cls-7" d="M550.23,601.7l18.68-.4a43,43,0,0,1-2.37,5.85,41.15,41.15,0,0,1-3.76,5.28Z" transform="translate(-199.04 -145.13)"/><path class="cls-7" d="M545.87,606.81l16.91,5.62a24.47,24.47,0,0,1-3.29,3.44,32,32,0,0,1-4.63,3.16Z" transform="translate(-199.04 -145.13)"/><path class="cls-7" d="M535.92,612.43l18.94,6.6a53.66,53.66,0,0,1-6.21,3.51c-1.95.74-5.14,2.05-5.14,2.05Z" transform="translate(-199.04 -145.13)"/><path class="cls-7" d="M520.07,616.54s3.91-.84,6.75-1.59,9.1-2.52,9.1-2.52L528,625.49Z" transform="translate(-199.04 -145.13)"/><path class="cls-7" d="M499,622.51l3.13,8.69,18-14.66s-8.36,1.84-12.42,3S499,622.51,499,622.51Z" transform="translate(-199.04 -145.13)"/><path class="cls-7" d="M489.13,627.6l.17,8.12L499,622.51s-3.2,1.46-5.52,2.56A33.24,33.24,0,0,0,489.13,627.6Z" transform="translate(-199.04 -145.13)"/><path class="cls-7" d="M480.84,645.05l-2.63-6a31,31,0,0,1,3.93-5.51c1.7-2,7-5.91,7-5.91Z" transform="translate(-199.04 -145.13)"/><path class="cls-7" d="M476.45,644.92l4,4L482,652.5l-5.12-2.86s-.38-1.69-.42-2.26S476.45,644.92,476.45,644.92Z" transform="translate(-199.04 -145.13)"/><polygon class="cls-1" points="293.14 71.99 336.37 115.33 293.14 157.91 250.41 114.95 293.14 71.99"/><polygon class="cls-7" points="347.3 298.11 338.49 303.43 384.18 295.52 347.3 298.11"/><path class="cls-9" d="M511,629.24s15.19-1.36,18-1.67,14.53-3,14.53-3l-15.52.9Z" transform="translate(-199.04 -145.13)"/><path class="cls-1" d="M728.9,273.45,519.08,152.31a53.55,53.55,0,0,0-53.56,0L255.7,273.45a53.55,53.55,0,0,0-26.78,46.38V562.11a53.57,53.57,0,0,0,26.78,46.38L465.52,729.63a53.55,53.55,0,0,0,53.56,0L728.9,608.49a53.57,53.57,0,0,0,26.78-46.38V319.83A53.55,53.55,0,0,0,728.9,273.45Zm4.27,275.66a53.57,53.57,0,0,1-26.78,46.39L519.08,703.64a53.55,53.55,0,0,1-53.56,0L278.21,595.5a53.57,53.57,0,0,1-26.78-46.39V332.83a53.57,53.57,0,0,1,26.78-46.39L465.52,178.3a53.55,53.55,0,0,1,53.56,0L706.39,286.44a53.57,53.57,0,0,1,26.78,46.39Z" transform="translate(-199.04 -145.13)"/><text class="cls-10" transform="translate(0 682.64)">InnovaLab</text></svg>